<svg xmlns="http://www.w3.org/2000/svg" xml:space="preserve" stroke-miterlimit="10" style="fill-rule:nonzero;clip-rule:evenodd;stroke-linecap:round;stroke-linejoin:round" viewBox="0 0 24 24" fill="currentColor"><g id="Ebene-1"><path d="m3.5 14.6 6.3-6.5L11 6l1-1.2 2-1.3 1.6-.8-1-.4a8 8 0 0 0-2.7-.2 9 9 0 0 0-7.4 4.7 10 10 0 0 0-1.2 3.6v2.4zm6.5 3c2.1-.4 4.4-.6 6-2.3q.6-.6.8-1.4l1-4.8q.4-1 1.4-1.3a4 4 0 0 1 2 .2l.7.6q.2-.8 0-1.6-.4-.9-1-1.7a4 4 0 0 0-2.4-1.6c-2.5-.4-4.6.9-6.3 2.8l-.8 1.2-.2 1q0 .8.7 1.3l2.1 1.7q.4.7.4 1.3-.3 1-1 1.8zM19.6 9q-.3.2-.5.6l-.8 3.8q-.3 1.6-1.2 2.7-.5.6-1.1 1-.8.5-1.7.8-1.2.5-2.5.7l-6.1.3a12 12 0 0 0 4 2.6q1.5.5 3.2.4a9 9 0 0 0 6-2.8l1-1.3a10 10 0 0 0 1.7-6.4l-.3-1.8q-.3-.7-1.7-.6m-9.6.6-3 3-5 5.5q3.4-1.4 6-4l3-3q.2 0 .2-.2l-.5-.6-.4-1zm1.9 2.2a66 66 0 0 1-6.6 5.7c1.6 0 3.2 0 4.6-1.1q1.2-.8 2.2-1.7c.7-.5 1.9-1.8 1-2.7l-.7-.5z"/></g></svg>