<svg xmlns="http://www.w3.org/2000/svg" xml:space="preserve" fill="currentColor" stroke-miterlimit="10" style="fill-rule:nonzero;clip-rule:evenodd;stroke-linecap:round;stroke-linejoin:round" viewBox="0 0 24 24"><g id="Ebene-1"><path d="m3.5 14.6 6.3-6.5L11 6l1-1.2 2-1.3 1.6-.8-1-.4a8 8 0 0 0-2.6-.2 9 9 0 0 0-7.4 4.7 10 10 0 0 0-1.3 6zm6.5 3c2.1-.4 4.4-.6 6-2.3q.6-.6.8-1.4l1-4.8q.4-1 1.4-1.2a4 4 0 0 1 2 0l.7.7q.2-.8 0-1.6l-1-1.7q-.8-1.5-2.4-1.6c-2.5-.4-4.6.9-6.3 2.8l-.8 1.2-.2 1q0 .8.7 1.3l2.1 1.7q.4.7.4 1.3-.3 1-1 1.8zM19.6 9q-.3.2-.5.6l-.8 3.8q-.3 1.6-1.2 2.7l-1.1 1q-.7.5-1.6.8-1.3.5-2.6.7l-6.1.3q1.7 1.6 4 2.6 1.4.5 3.2.4a9 9 0 0 0 7-4c1.1-2 2-4.3 1.7-6.5q0-1-.3-1.9T19.6 9m-9.6.6-3 3-5 5.5q3.4-1.4 6-4l3-3q.2 0 .2-.2l-.5-.6-.4-1zm1.9 2.2q-3.2 3-6.6 5.7c1.6-.1 3.2-.1 4.6-1.1l2.3-1.7c.6-.5 1.7-1.8.9-2.7l-.7-.5z"/></g></svg>