<svg xmlns="http://www.w3.org/2000/svg" xml:space="preserve" fill="currentColor" stroke-miterlimit="10" style="fill-rule:nonzero;clip-rule:evenodd;stroke-linecap:round;stroke-linejoin:round" viewBox="0 0 24 24"><g id="Ebene-1"><path d="M3.48 14.63q3.15-3.26 6.29-6.55c.53-.57.86-1.32 1.33-1.96q.5-.67 1.09-1.24.81-.78 1.74-1.4c.48-.31 1.02-.5 1.53-.75-.34-.13-.67-.3-1.01-.41a8 8 0 0 0-2.6-.26 9.1 9.1 0 0 0-7.4 4.7 10 10 0 0 0-1.2 3.6q-.15 1.23-.07 2.48c.03.6.2 1.2.3 1.8M10 17.56c2.11-.33 4.42-.55 6.06-2.23.36-.37.56-.92.7-1.44.4-1.57.65-3.18 1.05-4.75.18-.7.8-1.16 1.42-1.3A4 4 0 0 1 21.2 8c.26.12.44.38.66.57.21-.46.17-1.07-.03-1.53q-.37-.92-.87-1.78a3.5 3.5 0 0 0-2.47-1.59c-2.52-.38-4.6.9-6.25 2.87q-.47.56-.8 1.2-.17.43-.2.89c-.01.6.3.99.7 1.35.67.62 1.43 1.13 2.1 1.76.28.26.4.89.33 1.24q-.25 1.08-1.01 1.85c-1.08.97-2.24 1.84-3.36 2.76m9.64-8.51c-.27.21-.46.29-.55.66-.28 1.25-.47 2.53-.76 3.78-.23.95-.6 1.92-1.21 2.65q-.51.6-1.14 1.05-.77.52-1.63.82c-.81.3-1.65.57-2.5.66-2.05.23-4.12.2-6.17.3a12 12 0 0 0 3.98 2.6q1.57.51 3.2.39a9 9 0 0 0 5.96-2.79q.58-.57 1.04-1.27a10.4 10.4 0 0 0 1.74-6.46q-.1-.92-.34-1.82c-.16-.62-.62-.6-1.62-.57m-9.6.6q-1.55 1.53-3.05 3.1c-1.67 1.78-3.29 3.62-4.93 5.44 2.2-.84 4.1-2.4 5.87-4q1.6-1.45 3.13-2.94c.03-.03.2-.17.13-.26-.16-.23-.37-.41-.5-.65-.17-.27-.26-.6-.42-.88 0-.02-.04-.01-.24.2m1.84 2.2a66 66 0 0 1-6.61 5.7c1.68-.08 3.22-.08 4.67-1.12q1.13-.81 2.22-1.68c.64-.5 1.8-1.77.94-2.64q-.3-.33-.66-.57c-.06-.04-.14 0-.56.31"/></g></svg>