<svg xmlns="http://www.w3.org/2000/svg" xml:space="preserve" stroke-miterlimit="10" style="fill-rule:nonzero;clip-rule:evenodd;stroke-linecap:round;stroke-linejoin:round" viewBox="0 0 24 24" fill="currentColor"><g id="Ebene-1"><path d="M15 10.8h-2q0-.5-.3-.8-.4-.6-1.2-.5-1 0-1.5 1l-.2 1.6.2 1.4q.5 1 1.5 1 .7 0 1-.4.4-.3.4-1H15a3.6 3.6 0 0 1-3.7 3.2q-2 0-2.9-1.1-1-1.2-1-3 0-2.2 1.1-3.4 1-1 2.9-1.1 1.5 0 2.5.7t1.2 2.4"/><path d="M20.3 1.2q-.6 0-1 .4l-.2.2L16.5 4l-.6.4q-.7.2-1.3-.3l-.3-.3-2 1.6.2.3a5 5 0 0 0 2 1.2q1.2.2 2.2-.1l1.2-.6 1-.8.3 12.8-1.2-.4h-.6q-2.3-.4-6.6-.4H2.2v2.7h.6a184 184 0 0 1 14.7.3l.6.1.2.1.3.2.3.3.4.5c.1 1.6 2.5 1.4 2.5-.2l-.3-19q-.2-1.3-1.2-1.3"/></g></svg>