<svg xmlns="http://www.w3.org/2000/svg" xml:space="preserve" stroke-miterlimit="10" style="fill-rule:nonzero;clip-rule:evenodd;stroke-linecap:round;stroke-linejoin:round" viewBox="0 0 24 24" fill="currentColor"><g id="Ohne-Titel"><g><path d="M14.3 20.6a1.1 1.1 0 1 0-2.3 0 1.1 1.1 0 0 0 2.3 0"/><path d="m21.2 3-4.1 1-6.5 2-1.3.5-1.7 2L1 12.6s.2 1.1 1.7.7q1-.5 1.7-.6l-3.1 3.7s.4.8 2.2 0c.2 0 5.5-5.3 5.5-5.3l.9 4.4.8 2.1q.3.8 1 .8h.6l-.8-7.1a1.6 1.6 0 1 1 3.1 0l-.8 7h.3a2 2 0 0 0 1.5-1l.7-2.1L18 12l2-3.7 1-.5z"/><path d="M20.5 7.9v-5l2.4-.6-.3 5.7-2.2.6z"/></g></g></svg>