<svg xmlns="http://www.w3.org/2000/svg" xml:space="preserve" stroke-miterlimit="10" style="fill-rule:nonzero;clip-rule:evenodd;stroke-linecap:round;stroke-linejoin:round" viewBox="0 0 24 24" fill="currentColor"><g id="Ebene-1"><path d="M12 1.8a10.2 10.2 0 1 0 0 20.4 10.2 10.2 0 0 0 0-20.4M9.6 6.3a1.2 1.2 0 1 1 0 2.3 1.2 1.2 0 1 1 0-2.3m4.8 0a1.2 1.2 0 1 1 0 2.3 1.2 1.2 0 1 1 0-2.3M12 8.6a3.4 3.4 0 1 1 0 6.8 3.4 3.4 0 0 1 0-6.8M6.8 10a1.2 1.2 0 1 1 0 2.4q-1 0-1.2-1.2.2-1 1.2-1.2m10.4 0a1.2 1.2 0 1 1 0 2.4 1.2 1.2 0 1 1 0-2.4m-9.5 4.3a1.2 1.2 0 1 1 0 2.4 1.2 1.2 0 1 1 0-2.4m8.3 0a1.2 1.2 0 1 1 0 2.4 1.2 1.2 0 1 1 0-2.4M12 16q1.1.1 1.2 1.3a1.2 1.2 0 1 1-2.4 0q0-1.2 1.2-1.3"/></g></svg>